<?xml version="1.0" standalone="no"?>
<!DOCTYPE svg PUBLIC "-//W3C//DTD SVG 20010904//EN"
 "http://www.w3.org/TR/2001/REC-SVG-20010904/DTD/svg10.dtd">
<svg version="1.0" xmlns="http://www.w3.org/2000/svg"
 width="1280.000000pt" height="771.000000pt" viewBox="0 0 1280.000000 771.000000"
 preserveAspectRatio="xMidYMid meet">

<g transform="translate(0.000000,771.000000) scale(0.100000,-0.100000)"
fill="#ffffff" stroke="none">
<path d="M9743 7500 c-13 -5 -23 -11 -23 -12 0 -2 -9 -208 -20 -457 -23 -531
-29 -491 81 -491 45 0 72 5 82 14 14 14 25 185 28 416 1 89 12 147 22 120 3
-8 49 -133 102 -277 56 -152 103 -264 112 -267 24 -10 153 -7 172 4 10 5 32
48 50 97 18 48 51 135 73 193 22 58 48 128 58 155 10 28 23 64 30 80 l13 30 7
-25 c5 -14 8 -63 9 -110 3 -231 14 -402 28 -416 10 -9 38 -14 88 -14 103 0
109 7 101 124 -3 50 -11 224 -16 386 -14 396 -18 438 -38 449 -24 12 -174 14
-205 2 -15 -6 -27 -15 -27 -21 0 -5 -15 -49 -34 -98 -19 -48 -53 -139 -76
-202 -23 -63 -48 -131 -55 -150 -8 -19 -27 -71 -43 -115 -17 -44 -34 -81 -40
-83 -5 -1 -14 10 -20 25 -28 74 -150 401 -189 508 -25 66 -52 126 -61 133 -19
14 -175 16 -209 2z m207 -87 c12 -32 33 -87 45 -123 13 -36 32 -87 43 -115 11
-27 54 -142 97 -255 42 -113 79 -207 81 -210 9 -8 21 22 159 391 l138 369 83
0 82 0 6 -82 c3 -46 10 -211 16 -368 6 -157 12 -320 15 -363 l6 -78 -63 3 -63
3 -6 135 c-4 74 -10 237 -14 363 -4 125 -11 227 -14 227 -4 0 -28 -57 -54
-127 -26 -71 -87 -234 -136 -363 l-89 -235 -68 0 -68 0 -43 115 c-24 63 -57
149 -72 190 -16 41 -58 153 -93 247 -34 95 -66 173 -69 173 -6 0 -10 -100 -25
-537 l-7 -193 -53 0 c-29 0 -55 3 -57 8 -2 4 4 196 14 427 10 231 18 428 18
438 1 15 12 17 85 17 l85 0 21 -57z"/>
<path d="M10898 7499 c-17 -9 -18 -43 -18 -472 0 -347 3 -466 12 -475 16 -16
580 -17 609 -2 16 9 19 22 19 80 0 58 -3 71 -19 80 -12 6 -103 10 -226 10
l-206 0 3 113 3 112 179 2 c138 1 181 4 187 15 5 7 9 41 9 75 0 51 -3 64 -19
73 -12 6 -92 10 -190 10 l-171 0 0 105 0 105 189 0 c213 0 204 -3 227 82 17
66 17 63 -2 82 -13 14 -54 16 -292 16 -170 0 -284 -5 -294 -11z m552 -48 c0
-10 -5 -32 -11 -50 l-11 -31 -199 0 -199 0 0 -145 0 -145 191 0 190 0 -3 -47
-3 -48 -187 -3 -188 -2 0 -150 0 -150 225 0 225 0 0 -50 0 -50 -280 0 -280 0
0 445 0 445 265 0 c251 0 265 -1 265 -19z"/>
<path d="M11607 7495 c-15 -15 -17 -59 -17 -470 0 -399 2 -455 16 -469 21 -22
327 -22 429 -1 240 51 394 246 395 500 0 152 -80 310 -194 382 -91 58 -133 66
-382 71 -206 4 -232 2 -247 -13z m481 -40 c82 -20 115 -37 178 -97 189 -179
152 -547 -71 -697 -24 -16 -72 -40 -107 -53 -58 -21 -79 -23 -258 -23 l-195 0
-3 430 c-1 237 0 436 3 443 7 19 370 16 453 -3z"/>
<path d="M11750 7363 c-1 -5 -1 -159 0 -343 l0 -335 137 0 c125 0 143 3 187
25 126 62 197 207 183 377 -10 126 -94 245 -195 273 -42 11 -312 14 -312 3z
m325 -52 c52 -24 93 -65 119 -121 16 -35 20 -65 20 -140 1 -112 -13 -164 -57
-222 -64 -84 -116 -105 -272 -110 l-100 -3 -1 308 -2 307 127 0 c101 0 134 -4
166 -19z"/>
<path d="M8750 7210 c-52 -27 -175 -161 -190 -205 -18 -54 -1 -101 65 -174 30
-34 55 -69 55 -77 0 -18 -89 -112 -470 -497 -157 -158 -285 -291 -285 -296 0
-15 408 -392 422 -389 7 2 182 170 389 373 207 204 380 372 386 374 5 2 31
-17 56 -42 63 -60 119 -97 150 -97 44 0 109 39 173 103 104 105 122 168 70
248 -56 87 -557 586 -674 670 -47 34 -95 37 -147 9z"/>
<path d="M12533 6738 c-72 -19 -99 -119 -47 -171 49 -49 134 -45 169 9 8 13
15 41 15 63 0 71 -66 118 -137 99z m82 -58 c56 -62 -36 -149 -95 -90 -24 24
-26 67 -3 92 22 24 75 23 98 -2z"/>
<path d="M7090 6401 c-50 -27 -167 -152 -190 -203 -31 -70 -14 -102 133 -255
45 -46 77 -88 75 -97 -1 -8 -622 -635 -1378 -1393 -757 -758 -1413 -1420
-1458 -1470 -45 -51 -82 -102 -82 -112 0 -35 61 -194 106 -279 25 -46 44 -90
42 -97 -2 -7 -115 -127 -253 -267 -137 -139 -271 -279 -298 -310 l-48 -56 21
-55 c42 -111 159 -260 260 -328 27 -19 48 -38 46 -44 -1 -5 -72 -65 -156 -131
-85 -67 -155 -126 -157 -130 -1 -5 84 -46 190 -90 168 -71 192 -79 195 -63 2
10 -4 82 -12 160 -19 166 -20 229 -5 229 6 0 20 -5 32 -11 36 -20 76 -12 122
24 25 18 156 144 293 278 137 134 260 250 274 258 25 13 34 10 130 -37 136
-67 256 -107 285 -96 41 16 280 251 1616 1584 730 729 1335 1326 1343 1328 8
2 57 -37 108 -86 92 -88 161 -132 205 -132 40 0 95 37 168 113 80 82 93 106
93 175 l0 47 -783 783 -782 782 -50 0 c-29 -1 -65 -9 -85 -19z m583 -1102
l441 -440 -1104 -1103 c-608 -606 -1258 -1252 -1444 -1435 -390 -382 -336
-352 -492 -274 -127 63 -279 179 -399 304 -122 127 -194 227 -276 383 l-62
118 1444 1444 c794 794 1445 1444 1447 1444 2 0 202 -198 445 -441z m-3088
-3089 c74 -74 135 -137 135 -141 0 -9 -428 -427 -485 -474 -35 -30 -50 -36
-71 -31 -35 9 -231 205 -240 240 -6 26 10 44 252 287 142 143 262 258 267 256
4 -1 68 -63 142 -137z"/>
<path d="M7051 5177 c-33 -17 -45 -39 -37 -70 10 -40 434 -467 464 -467 26 0
82 50 82 73 0 49 -432 478 -480 477 -3 0 -16 -6 -29 -13z"/>
<path d="M6730 4853 c-52 -19 -63 -66 -29 -123 29 -49 367 -381 411 -405 71
-37 127 13 98 87 -15 37 -367 394 -421 427 -36 22 -36 22 -59 14z"/>
<path d="M6245 4581 c-36 -21 -83 -75 -96 -108 -6 -17 -4 -33 7 -56 20 -40
566 -587 614 -616 19 -11 47 -21 62 -21 48 0 138 96 138 146 0 26 -93 133
-282 325 -163 166 -302 295 -358 332 -31 22 -48 21 -85 -2z"/>
<path d="M5305 3648 c-409 -410 -711 -720 -738 -759 -63 -89 -62 -113 3 -210
102 -151 223 -287 342 -383 51 -40 264 -166 283 -166 18 0 1494 1485 1504
1512 4 11 -678 698 -693 698 -5 0 -320 -312 -701 -692z"/>
<path d="M4070 5181 c-8 -5 -87 -36 -175 -69 -88 -34 -205 -79 -260 -100 -55
-22 -206 -80 -335 -130 -129 -49 -386 -148 -570 -220 -184 -72 -402 -156 -485
-187 -82 -31 -224 -86 -315 -122 -91 -36 -293 -114 -450 -174 -157 -59 -395
-151 -530 -204 -135 -52 -303 -118 -375 -145 -72 -27 -204 -79 -295 -114
l-165 -64 -3 -541 c-2 -507 -1 -541 15 -550 15 -8 140 -56 568 -221 39 -15
196 -75 350 -134 154 -59 361 -139 460 -178 99 -38 221 -85 270 -103 50 -19
137 -52 195 -75 58 -22 186 -72 285 -110 298 -113 628 -239 665 -254 168 -68
242 -96 254 -96 7 0 33 21 57 48 105 112 169 183 244 267 44 49 105 116 136
149 31 34 109 119 173 190 138 153 152 125 -110 219 -181 65 -989 360 -1624
592 -190 69 -415 151 -500 182 -85 31 -157 58 -159 60 -10 7 16 18 206 88 109
40 297 110 418 155 269 100 348 129 585 215 102 36 322 118 490 180 168 62
459 170 647 239 188 70 349 129 358 132 13 5 15 68 15 545 0 561 1 553 -40
530z"/>
<path d="M8744 4592 c-76 -76 -204 -200 -284 -277 -80 -76 -196 -188 -258
-249 l-112 -109 242 -87 c134 -48 335 -121 448 -163 113 -42 336 -124 495
-183 266 -97 386 -142 775 -286 74 -27 182 -67 240 -87 57 -21 105 -42 107
-47 2 -5 -61 -33 -139 -61 -385 -140 -808 -295 -1488 -543 -741 -271 -996
-363 -1057 -383 l-33 -10 0 -539 0 -539 23 7 c20 6 89 32 332 127 50 19 167
64 260 100 94 36 242 93 330 127 88 34 183 70 210 80 28 10 214 82 415 160
201 78 417 161 480 185 63 24 196 75 295 113 99 38 335 129 525 201 190 73
494 190 675 261 182 70 358 138 393 150 l62 23 -2 545 -3 545 -100 39 c-55 21
-140 54 -190 73 -49 19 -196 76 -325 126 -129 50 -426 164 -660 254 -234 90
-454 175 -490 190 -36 14 -135 53 -220 85 -85 33 -227 86 -315 120 -88 33
-194 75 -235 92 -41 17 -116 45 -166 63 l-90 33 -140 -136z"/>
<path d="M3225 967 c-465 -467 -615 -620 -685 -701 l-25 -29 40 7 c22 4 83 20
135 35 l95 29 533 531 c292 292 532 535 532 539 0 11 -94 102 -106 102 -5 0
-239 -231 -519 -513z"/>
<path d="M2397 1193 c-71 -27 -115 -68 -148 -137 -61 -129 -35 -208 149 -448
33 -42 65 -91 72 -108 15 -37 27 -38 41 -3 6 15 48 80 93 143 134 185 139 195
144 278 8 117 -45 214 -142 264 -56 29 -148 33 -209 11z"/>
</g>
</svg>
